<?xml version="1.0" encoding="utf-8"?>
<!-- Generator: Adobe Illustrator 19.2.1, SVG Export Plug-In . SVG Version: 6.00 Build 0)  -->
<svg version="1.1" id="Layer_1" xmlns="http://www.w3.org/2000/svg" xmlns:xlink="http://www.w3.org/1999/xlink" x="0px" y="0px"
	 viewBox="0 0 220.3 127.9" style="enable-background:new 0 0 220.3 127.9;" xml:space="preserve">
	 <style type="text/css">
	 	.logo-fill{
	 		fill: #ffffff;
	 	}
	 </style>
<path class="logo-fill" d="M39.6,67.8c-1.2,0-2.5,3.5-8.2,4.7c1.9-5.1,3.8-11.2,5.6-17.1c3.2,1.1,6.3,2.4,9.3,3.3v15.8c0,1.7-0.1,3.8-2.8,3.8h-0.9v1.2
	h13.8v-1.2h-0.7c-2.5,0-2.7-2.1-2.7-3.8V60h1.4c2.4,0,3.7-0.5,3.7-1.9c0-0.5-0.3-0.9-0.6-0.9c-0.8,0,0.6,1.6-3.1,1.6H53V28.4
	c0-1.2,0.5-2.1,2.1-2.1h0.4v-1.4h-1c-9.4,0-14.7,14.3-19.2,28.6C32.4,52.6,29.4,52,26,52c-7.3,0-15.5,2.9-15.5,10.5
	c0,8.6,10.6,11.5,18,11.3c-3.5,7.8-8.7,17.3-17.1,17.3c-3.8,0-6.8-1.9-6.8-4.7c0-1.4,1-1.9,1.7-1.9c0.5,0,1.1,0.2,1.4,0.4
	C8.3,84,8.6,83,8.6,82.3c0-1.8-1.2-3.7-3.7-3.7C2.2,78.6,0,80.8,0,84c0,5.5,4.8,8.9,10.8,8.9C21.9,92.9,27.5,82,31,73.5
	c5.7-0.9,9.1-3.7,9.1-5C40.2,68,40,67.8,39.6,67.8z M13.9,63c0-7.1,7.3-9.4,13.5-9.4c2.7,0,5.2,0.5,7.6,1.2c-2.1,6.6-4,13-6,18.1
	C21.4,73.2,13.9,69.8,13.9,63z M46.3,32.3v25.1c-2.8-0.9-5.8-2.2-8.9-3.2C40,45.7,42.8,37.5,46.3,32.3z"/>
<path class="logo-fill" d="M60,47v29.2c0,2-1,2.2-2,2.2h-0.8v1.2H66v-1.9c1.7,2.3,3.8,2.4,4.5,2.4c7.3,0,12-8.1,12-17.4c0-9-4-16.5-10.9-16.5
	c-2.7,0-4.5,1.3-5.7,3.1v-4c0-5.8,1-12.5,3.1-18.3c9.6,0.2,20,2.6,31,2.6c19.9,0,24.9-8.9,24.9-16.4c0-7.2-7.7-13-20.3-13
	c-17.2,0-30.7,8.5-38.2,21c-1,1.7-1.9,3.5-2.7,5.3C39,28,18.9,45.1,18.9,70.1c0,15.8,8.8,28.7,21,36.6c0,0.4-0.1,0.6-0.1,1
	c0,13.2,15.1,20.2,26.4,20.2c10.2,0,21.7-4.5,21.7-14.5c0-0.7-0.1-1.4-0.2-2c3.7-2.2,6.3-5.3,6.3-9.6c0-10.2-13.5-14.3-24.8-14.3
	c-13.5,0-28.2,6.2-29.2,18.7c-11.9-7.8-20.3-20.5-20.3-35.9c0-25.9,20.6-41.5,44-43.3C61.2,33.2,60,40.3,60,47z M70.8,23
	c6-12.5,17.4-22,33.3-22c8.5,0,18.4,2.7,18.4,12.9c0,11.9-12.2,15-22,15c-12.2,0-21.3-2.4-31.2-2.6C69.8,25.1,70.3,24,70.8,23z
	 M60.2,104.7l0.5,0.3c2.7-2.2,8.1-3,10.9-3c5.6,0,14.2,3,15.5,9.1C82,114,74.7,115,69.2,115c-10,0-20-3-28.4-8.3
	C41,93.8,56.7,87.9,69.4,87.9c10.5,0,23.7,4,23.7,13.9c0,4-2.2,6.9-5.5,8.9c-1.7-6.3-9.8-9.3-16.1-9.3
	C64.9,101.4,60.2,104.7,60.2,104.7z M87.2,112.7c0,8.8-13,12.2-20.9,12.2c-10.1,0-25.4-5.5-25.6-17.7c8.5,5.3,18.5,8.3,28.4,8.3
	c5.8,0,12.8-1,17.9-3.7C87.1,112,87.2,112.3,87.2,112.7z M71,47.6c2.9,0,5.4,3.2,5.4,15c0,4-0.4,15.8-6,15.8c-2.6,0-3.9-2.1-4.4-4.7
	V55.4C66,51.9,67.3,47.6,71,47.6z"/>
<path class="logo-fill" d="M83,70.2v8.4c0.8,0.4,4.1,1.4,7.5,1.4c4.7,0,9-3.8,9-9.1c0-8.9-12.2-12.5-12.2-19.3c0-1.9,1.4-4.3,4.2-4.3
	c4,0,5.1,4.8,5.3,7.8h1.5v-7.8c-1.9-0.6-4.3-1.2-6.4-1.2c-4.6,0-9.3,3.4-9.3,8.4c0,9.2,12.1,11.7,12.1,19.6c0,2.6-1.6,4.7-4.2,4.7
	c-5.2,0-5.9-6.3-6-8.6H83z"/>
<path class="logo-fill" d="M101.4,39.8c0,2.5,1.7,4.2,3.9,4.2c2.2,0,3.9-1.7,3.9-4.2c0-1.9-1.7-3.9-3.9-3.9C103.2,35.9,101.4,37.9,101.4,39.8z
	 M99.9,46.6v1.2h0.9c1,0,2.1,0.1,2.1,2.1v26.4c0,2-1,2.2-2,2.2h-0.8v1.2h11.4v-1.2h-0.7c-1.1,0-1.9-0.6-1.9-2.2V46.6H99.9z"/>
<path class="logo-fill" d="M127.5,46.6v1.2h0.9c1.9,0,2,2.2,2,3.5v16.1L120,46.6h-8v1.2h0.7c1.9,0,2.2,2.2,2.2,4.2v23.8c0,1.4-0.3,2.6-2.2,2.6h-0.4
	v1.2h7.2v-1.2h-0.4c-1.9,0-2.3-1.2-2.3-2.6V54.3l13,25.3h2.6V51.3c0-1.4,0.1-3.5,1.9-3.5h0.7v-1.2H127.5z"/>
<path class="logo-fill" d="M145.7,48.2c8.6,0,10.8-2.5,10.8-5.4c0-2-1.6-3-3.2-3c-0.8,0-1.5,0.2-2,0.7c0.9,0.6,1.4,1.5,1.4,2.5c0,3.1-3.2,3.9-6.6,3.9
	h-1.5v-7.8h-1.4c-1.1,3.2-2.8,5.6-5,7c-0.9,0.6-1.9,0.8-3,0.9v1.2h3.2v24.3c0,5.3,3.2,7.4,7.3,7.4c2.5,0,4.3-1,6-3.6l-0.9-0.7
	c-0.9,1.8-2.3,2.2-3,2.2c-2.2,0-3.3-1.5-3.3-4.2V48.2H145.7z"/>
<path class="logo-fill" d="M115.1,69.5c0,0.3,0,0.7,0,1c0.5,29.3,23.7,43,44.1,43c13.9,0,23.7-6.2,23.7-16.3c0-8.9-8.6-12.1-16.4-12.1
	c-6.9,0-15.8,2.6-15.8,9.1c0,5.4,6.8,7.2,10.6,7.2c2.4,0,6.3-0.8,6.3-1.9c0-0.5-0.4-0.7-0.6-0.4c-0.1,0.1-1.9,1.8-5.8,1.8
	c-4.8,0-8.9-2.7-8.9-6.7c0-5.5,7.9-8.5,14-8.5c5,0,15.8,1.7,15.8,11.4c0,11.7-15.3,13.9-22.9,13.9c-21.2,0-43.4-12.4-43.4-41.2
	c0-25.9,20.7-41,44.1-42.6c-2.4,6.2-3.7,13.3-3.7,20v29.2c0,2-1,2.2-2,2.2h-0.6v1.2h10.9v-1.2h-0.4c-1.2,0-1.9-0.6-1.9-2.2v-24
	c0.1-2.4,2.1-3.9,4.3-3.9c3.2,0,4.5,2.4,4.5,5.5v22.5c0,2-0.9,2.2-1.9,2.2h-0.8v1.2h11.2v-1.2h-0.7c-1.2,0-1.8-0.6-1.8-2.2V54.6
	c0-5.8-4-8.3-8.6-8.3c-2.5,0-5.2,1.2-6.3,2.7v-3.7c0-5.9,1-12.5,3.1-18.4c9.7,0.3,19.7,2.7,30.7,2.7c19.9,0,25.3-8.9,25.3-16.4
	c0-7.2-7.7-13-20.3-13c-17.2,0-30.7,8.5-38.2,21c-1,1.7-1.9,3.5-2.6,5.3C135.2,28.1,115.1,44.6,115.1,69.5z M166,22.9
	c6-12.5,17.4-22,33.3-22c8.5,0,18.4,2.7,18.4,12.9c0,11.9-12.6,15-22.4,15c-12.2,0-20.9-2.4-30.7-2.6C165,25.1,165.5,24,166,22.9z"
	/>
<path class="logo-fill" d="M190.6,80c4.5,0,8.6-3.1,8.6-7.8c0-1.8-1.2-3.5-3.2-3.5c-2.4,0-3.6,1.4-3.6,3.1c0.2-0.1,0.4-0.1,0.6-0.1c1.4,0,2,1.4,2,2.5
	c0,2.4-1.7,4.5-4.4,4.5c-3.4,0-5.6-2.7-5.6-13.8v-2.7h14.1c0.6,0,0.6-0.6,0.6-1.1c0-6.3-2.7-15-9.6-15c-7.1,0-11.3,8.4-11.3,17.2
	C178.9,71.9,183.4,80,190.6,80z M190.1,47.3c3.2,0,3.7,7.5,3.7,12.4c0,0.6-0.2,0.9-0.8,0.9h-7.9C185.6,51.6,187.6,47.3,190.1,47.3z"
	/>
</svg>
